<?xml version="1.0" encoding="UTF-8"?><!DOCTYPE svg PUBLIC "-//W3C//DTD SVG 1.1//EN" "http://www.w3.org/Graphics/SVG/1.1/DTD/svg11.dtd"><svg xmlns="http://www.w3.org/2000/svg" xmlns:xlink="http://www.w3.org/1999/xlink"><symbol id="facebook" viewBox="0 0 18 18"><path d="M16.2 0H1.8C.81 0 0 .81 0 1.8v14.4c0 .99.81 1.8 1.8 1.8h14.4c.99 0 1.8-.81 1.8-1.8V1.8c0-.99-.81-1.8-1.8-1.8zm-.9 1.8v2.7h-1.8c-.54 0-.9.36-.9.9v1.8h2.7v2.7h-2.7v6.3H9.9V9.9H8.1V7.2h1.8V4.95c0-1.71 1.44-3.15 3.15-3.15h2.25z"/></symbol><symbol id="instagram" viewBox="0 0 18 18"><mask id="instagram-a" fill="#fff"><use xlink:href="#path-1"/></mask><path d="M8.986.028c-2.44 0-2.747.01-3.705.054C4.325.126 3.671.278 3.1.5c-.591.23-1.092.537-1.592 1.037-.5.5-.807 1-1.036 1.591C.25 3.7.098 4.353.054 5.31.01 6.268 0 6.574 0 9.014c0 2.44.01 2.747.054 3.705.044.956.196 1.61.418 2.181.23.591.537 1.092 1.036 1.592.5.5 1 .807 1.592 1.036.571.222 1.225.374 2.181.418.958.044 1.264.054 3.705.054 2.44 0 2.746-.01 3.705-.054.956-.044 1.61-.196 2.18-.418a4.404 4.404 0 0 0 1.592-1.036c.5-.5.807-1 1.037-1.592.222-.571.374-1.225.418-2.181.043-.958.054-1.264.054-3.705 0-2.44-.01-2.746-.054-3.705-.044-.956-.196-1.61-.418-2.18a4.405 4.405 0 0 0-1.037-1.592c-.5-.5-1-.807-1.591-1.037C14.3.278 13.647.126 12.69.082 11.732.04 11.426.028 8.986.028m0 1.62c2.4 0 2.683.009 3.63.052.877.04 1.353.186 1.67.31.419.162.718.357 1.033.671.314.315.509.614.672 1.034.123.316.27.792.31 1.668.042.948.052 1.232.052 3.631 0 2.4-.01 2.684-.053 3.631-.04.876-.186 1.352-.31 1.669-.162.42-.357.719-.671 1.033-.315.314-.614.51-1.034.672-.316.123-.792.27-1.668.31-.948.043-1.232.052-3.631.052-2.4 0-2.684-.01-3.631-.052-.876-.04-1.352-.187-1.669-.31a2.784 2.784 0 0 1-1.033-.672 2.785 2.785 0 0 1-.672-1.033c-.123-.317-.27-.793-.31-1.669-.043-.947-.052-1.231-.052-3.63 0-2.4.01-2.684.052-3.632.04-.876.187-1.352.31-1.668.163-.42.358-.72.672-1.034.314-.314.614-.509 1.033-.672.317-.123.793-.27 1.669-.31.947-.042 1.232-.052 3.63-.052" mask="url(#instagram-a)"/><path d="M8.986 12.01a2.995 2.995 0 1 1 0-5.991 2.995 2.995 0 0 1 0 5.99m0-7.61a4.614 4.614 0 1 0 0 9.23 4.614 4.614 0 0 0 0-9.23M14.86 4.218a1.078 1.078 0 1 1-2.156 0 1.078 1.078 0 0 1 2.157 0"/></symbol><symbol id="strava" viewBox="0 0 13 18"><path d="M8.866 13.087L7.298 10H5l3.866 7.629L12.729 10h-2.3"/><path d="M5.25 6.172l2.127 4.198h3.128L5.25 0 0 10.371h3.126"/></symbol><symbol id="twitter" viewBox="0 0 612 612"><path d="M612 116.258a250.714 250.714 0 0 1-72.088 19.772c25.929-15.527 45.777-40.155 55.184-69.411-24.322 14.379-51.169 24.82-79.775 30.48-22.907-24.437-55.49-39.658-91.63-39.658-69.334 0-125.551 56.217-125.551 125.513 0 9.828 1.109 19.427 3.251 28.606-104.326-5.24-196.835-55.223-258.75-131.174-10.823 18.51-16.98 40.078-16.98 63.101 0 43.559 22.181 81.993 55.835 104.479a125.556 125.556 0 0 1-56.867-15.756v1.568c0 60.806 43.291 111.554 100.693 123.104-10.517 2.83-21.607 4.398-33.08 4.398-8.107 0-15.947-.803-23.634-2.333 15.985 49.907 62.336 86.199 117.253 87.194-42.947 33.654-97.099 53.655-155.916 53.655-10.134 0-20.116-.612-29.944-1.721 55.567 35.681 121.536 56.485 192.438 56.485 230.948 0 357.188-191.291 357.188-357.188l-.421-16.253c24.666-17.593 46.005-39.697 62.794-64.861z"/></symbol></svg>